<mxfile host="app.diagrams.net" agent="Mozilla/5.0 (Windows NT 10.0; Win64; x64) AppleWebKit/537.36 (KHTML, like Gecko) Chrome/128.0.0.0 Safari/537.36" version="24.7.12">
  <diagram name="Page-1" id="ogtiEbw9Vux9qFeJzaDP">
    <mxGraphModel grid="1" page="1" gridSize="10" guides="1" tooltips="1" connect="1" arrows="1" fold="1" pageScale="1" pageWidth="850" pageHeight="1100" math="0" shadow="0">
      <root>
        <mxCell id="0" />
        <mxCell id="1" parent="0" />
        <mxCell id="Kv_2CGKWCQ3q4yIAV1FS-3" value="" style="edgeStyle=orthogonalEdgeStyle;rounded=0;orthogonalLoop=1;jettySize=auto;html=1;exitX=0.5;exitY=1;exitDx=0;exitDy=0;exitPerimeter=0;" edge="1" parent="1" source="Kv_2CGKWCQ3q4yIAV1FS-38" target="Kv_2CGKWCQ3q4yIAV1FS-2">
          <mxGeometry relative="1" as="geometry">
            <mxPoint x="160" y="100" as="sourcePoint" />
          </mxGeometry>
        </mxCell>
        <mxCell id="Kv_2CGKWCQ3q4yIAV1FS-5" value="" style="edgeStyle=orthogonalEdgeStyle;rounded=0;orthogonalLoop=1;jettySize=auto;html=1;" edge="1" parent="1" source="Kv_2CGKWCQ3q4yIAV1FS-2" target="Kv_2CGKWCQ3q4yIAV1FS-4">
          <mxGeometry relative="1" as="geometry" />
        </mxCell>
        <mxCell id="Kv_2CGKWCQ3q4yIAV1FS-2" value="Generate a random number between 1-100&lt;div&gt;Store in pcnumber&lt;/div&gt;&lt;div&gt;count=0&lt;/div&gt;" style="whiteSpace=wrap;html=1;strokeWidth=2;" vertex="1" parent="1">
          <mxGeometry x="75" y="180" width="170" height="90" as="geometry" />
        </mxCell>
        <mxCell id="Kv_2CGKWCQ3q4yIAV1FS-7" value="" style="edgeStyle=orthogonalEdgeStyle;rounded=0;orthogonalLoop=1;jettySize=auto;html=1;" edge="1" parent="1" source="Kv_2CGKWCQ3q4yIAV1FS-4" target="Kv_2CGKWCQ3q4yIAV1FS-6">
          <mxGeometry relative="1" as="geometry" />
        </mxCell>
        <mxCell id="Kv_2CGKWCQ3q4yIAV1FS-4" value="Ask user to input a number between 1-100&lt;div&gt;store in usernumber&lt;/div&gt;" style="shape=parallelogram;perimeter=parallelogramPerimeter;whiteSpace=wrap;html=1;fixedSize=1;strokeWidth=2;" vertex="1" parent="1">
          <mxGeometry x="72.5" y="330" width="175" height="90" as="geometry" />
        </mxCell>
        <mxCell id="Kv_2CGKWCQ3q4yIAV1FS-9" value="" style="edgeStyle=orthogonalEdgeStyle;rounded=0;orthogonalLoop=1;jettySize=auto;html=1;" edge="1" parent="1" source="Kv_2CGKWCQ3q4yIAV1FS-6" target="Kv_2CGKWCQ3q4yIAV1FS-8">
          <mxGeometry relative="1" as="geometry" />
        </mxCell>
        <mxCell id="Kv_2CGKWCQ3q4yIAV1FS-6" value="is usernumber &amp;gt; pcnumber" style="rhombus;whiteSpace=wrap;html=1;strokeWidth=2;" vertex="1" parent="1">
          <mxGeometry x="72.5" y="520" width="175" height="170" as="geometry" />
        </mxCell>
        <mxCell id="Kv_2CGKWCQ3q4yIAV1FS-8" value="Display &quot;Too high&quot;&lt;div&gt;Add 1 to count&lt;/div&gt;" style="whiteSpace=wrap;html=1;strokeWidth=2;" vertex="1" parent="1">
          <mxGeometry x="80" y="825" width="160" height="85" as="geometry" />
        </mxCell>
        <mxCell id="Kv_2CGKWCQ3q4yIAV1FS-10" value="Yes" style="text;html=1;align=center;verticalAlign=middle;whiteSpace=wrap;rounded=0;" vertex="1" parent="1">
          <mxGeometry x="100" y="740" width="60" height="30" as="geometry" />
        </mxCell>
        <mxCell id="Kv_2CGKWCQ3q4yIAV1FS-13" value="No" style="text;html=1;align=center;verticalAlign=middle;whiteSpace=wrap;rounded=0;" vertex="1" parent="1">
          <mxGeometry x="520" y="580" width="60" height="30" as="geometry" />
        </mxCell>
        <mxCell id="Kv_2CGKWCQ3q4yIAV1FS-18" value="" style="edgeStyle=orthogonalEdgeStyle;rounded=0;orthogonalLoop=1;jettySize=auto;html=1;" edge="1" parent="1" source="Kv_2CGKWCQ3q4yIAV1FS-15" target="Kv_2CGKWCQ3q4yIAV1FS-17">
          <mxGeometry relative="1" as="geometry" />
        </mxCell>
        <mxCell id="Kv_2CGKWCQ3q4yIAV1FS-21" value="" style="edgeStyle=orthogonalEdgeStyle;rounded=0;orthogonalLoop=1;jettySize=auto;html=1;" edge="1" parent="1" source="Kv_2CGKWCQ3q4yIAV1FS-15" target="Kv_2CGKWCQ3q4yIAV1FS-20">
          <mxGeometry relative="1" as="geometry" />
        </mxCell>
        <mxCell id="Kv_2CGKWCQ3q4yIAV1FS-15" value="Is usernumber &amp;lt; pcnumber" style="rhombus;whiteSpace=wrap;html=1;strokeWidth=2;" vertex="1" parent="1">
          <mxGeometry x="320" y="517.5" width="175" height="175" as="geometry" />
        </mxCell>
        <mxCell id="Kv_2CGKWCQ3q4yIAV1FS-17" value="Display &quot;Too Low&quot;&lt;div&gt;Add 1 to count&lt;/div&gt;" style="whiteSpace=wrap;html=1;strokeWidth=2;" vertex="1" parent="1">
          <mxGeometry x="326.25" y="830" width="162.5" height="80" as="geometry" />
        </mxCell>
        <mxCell id="Kv_2CGKWCQ3q4yIAV1FS-19" value="Yes" style="text;html=1;align=center;verticalAlign=middle;whiteSpace=wrap;rounded=0;" vertex="1" parent="1">
          <mxGeometry x="350" y="740" width="60" height="30" as="geometry" />
        </mxCell>
        <mxCell id="Kv_2CGKWCQ3q4yIAV1FS-26" value="" style="edgeStyle=orthogonalEdgeStyle;rounded=0;orthogonalLoop=1;jettySize=auto;html=1;" edge="1" parent="1" source="Kv_2CGKWCQ3q4yIAV1FS-20" target="Kv_2CGKWCQ3q4yIAV1FS-25">
          <mxGeometry relative="1" as="geometry" />
        </mxCell>
        <mxCell id="Kv_2CGKWCQ3q4yIAV1FS-20" value="Is usernumber == pcnumber" style="rhombus;whiteSpace=wrap;html=1;strokeWidth=2;" vertex="1" parent="1">
          <mxGeometry x="600" y="523.75" width="170" height="162.5" as="geometry" />
        </mxCell>
        <mxCell id="Kv_2CGKWCQ3q4yIAV1FS-23" value="" style="edgeStyle=orthogonalEdgeStyle;rounded=0;orthogonalLoop=1;jettySize=auto;html=1;entryX=0;entryY=0.5;entryDx=0;entryDy=0;" edge="1" parent="1" source="Kv_2CGKWCQ3q4yIAV1FS-6" target="Kv_2CGKWCQ3q4yIAV1FS-15">
          <mxGeometry relative="1" as="geometry">
            <mxPoint x="248" y="605" as="sourcePoint" />
            <mxPoint x="267.5" y="515" as="targetPoint" />
          </mxGeometry>
        </mxCell>
        <mxCell id="Kv_2CGKWCQ3q4yIAV1FS-24" value="No" style="text;html=1;align=center;verticalAlign=middle;whiteSpace=wrap;rounded=0;" vertex="1" parent="1">
          <mxGeometry x="250" y="580" width="60" height="30" as="geometry" />
        </mxCell>
        <mxCell id="Kv_2CGKWCQ3q4yIAV1FS-31" value="" style="edgeStyle=orthogonalEdgeStyle;rounded=0;orthogonalLoop=1;jettySize=auto;html=1;" edge="1" parent="1" source="Kv_2CGKWCQ3q4yIAV1FS-25" target="Kv_2CGKWCQ3q4yIAV1FS-30">
          <mxGeometry relative="1" as="geometry" />
        </mxCell>
        <mxCell id="Kv_2CGKWCQ3q4yIAV1FS-25" value="Display &quot;Good Job!&quot;&lt;div&gt;Display Count&lt;/div&gt;" style="whiteSpace=wrap;html=1;strokeWidth=2;" vertex="1" parent="1">
          <mxGeometry x="607.5" y="828.75" width="155" height="82.5" as="geometry" />
        </mxCell>
        <mxCell id="Kv_2CGKWCQ3q4yIAV1FS-27" value="Yes" style="text;html=1;align=center;verticalAlign=middle;whiteSpace=wrap;rounded=0;" vertex="1" parent="1">
          <mxGeometry x="630" y="740" width="60" height="30" as="geometry" />
        </mxCell>
        <mxCell id="Kv_2CGKWCQ3q4yIAV1FS-28" value="" style="endArrow=classic;html=1;rounded=0;exitX=0.5;exitY=0;exitDx=0;exitDy=0;entryX=1;entryY=0.5;entryDx=0;entryDy=0;" edge="1" parent="1" source="Kv_2CGKWCQ3q4yIAV1FS-20" target="Kv_2CGKWCQ3q4yIAV1FS-4">
          <mxGeometry width="50" height="50" relative="1" as="geometry">
            <mxPoint x="600" y="560" as="sourcePoint" />
            <mxPoint x="650" y="510" as="targetPoint" />
            <Array as="points">
              <mxPoint x="685" y="375" />
            </Array>
          </mxGeometry>
        </mxCell>
        <mxCell id="Kv_2CGKWCQ3q4yIAV1FS-29" value="No" style="text;html=1;align=center;verticalAlign=middle;whiteSpace=wrap;rounded=0;" vertex="1" parent="1">
          <mxGeometry x="630" y="450" width="60" height="30" as="geometry" />
        </mxCell>
        <mxCell id="Kv_2CGKWCQ3q4yIAV1FS-33" value="" style="edgeStyle=orthogonalEdgeStyle;rounded=0;orthogonalLoop=1;jettySize=auto;html=1;" edge="1" parent="1" source="Kv_2CGKWCQ3q4yIAV1FS-30" target="Kv_2CGKWCQ3q4yIAV1FS-32">
          <mxGeometry relative="1" as="geometry" />
        </mxCell>
        <mxCell id="Kv_2CGKWCQ3q4yIAV1FS-30" value="DIsplay Would you like to play again? Y/N" style="whiteSpace=wrap;html=1;strokeWidth=2;" vertex="1" parent="1">
          <mxGeometry x="860" y="830" width="160" height="80" as="geometry" />
        </mxCell>
        <mxCell id="Kv_2CGKWCQ3q4yIAV1FS-36" value="" style="edgeStyle=orthogonalEdgeStyle;rounded=0;orthogonalLoop=1;jettySize=auto;html=1;entryX=0;entryY=0.5;entryDx=0;entryDy=0;entryPerimeter=0;" edge="1" parent="1" source="Kv_2CGKWCQ3q4yIAV1FS-32" target="Kv_2CGKWCQ3q4yIAV1FS-37">
          <mxGeometry relative="1" as="geometry">
            <mxPoint x="1350" y="870" as="targetPoint" />
          </mxGeometry>
        </mxCell>
        <mxCell id="Kv_2CGKWCQ3q4yIAV1FS-32" value="Is input Y" style="rhombus;whiteSpace=wrap;html=1;strokeWidth=2;" vertex="1" parent="1">
          <mxGeometry x="1130" y="815" width="120" height="110" as="geometry" />
        </mxCell>
        <mxCell id="Kv_2CGKWCQ3q4yIAV1FS-34" value="" style="endArrow=classic;html=1;rounded=0;exitX=0.5;exitY=0;exitDx=0;exitDy=0;entryX=1;entryY=0;entryDx=0;entryDy=0;" edge="1" parent="1" source="Kv_2CGKWCQ3q4yIAV1FS-32" target="Kv_2CGKWCQ3q4yIAV1FS-4">
          <mxGeometry width="50" height="50" relative="1" as="geometry">
            <mxPoint x="900" y="800" as="sourcePoint" />
            <mxPoint x="950" y="750" as="targetPoint" />
            <Array as="points">
              <mxPoint x="1190" y="330" />
            </Array>
          </mxGeometry>
        </mxCell>
        <mxCell id="Kv_2CGKWCQ3q4yIAV1FS-37" value="End" style="strokeWidth=2;html=1;shape=mxgraph.flowchart.terminator;whiteSpace=wrap;" vertex="1" parent="1">
          <mxGeometry x="1400" y="840" width="100" height="60" as="geometry" />
        </mxCell>
        <mxCell id="Kv_2CGKWCQ3q4yIAV1FS-38" value="Start" style="strokeWidth=2;html=1;shape=mxgraph.flowchart.terminator;whiteSpace=wrap;" vertex="1" parent="1">
          <mxGeometry x="110" y="30" width="100" height="60" as="geometry" />
        </mxCell>
        <mxCell id="Kv_2CGKWCQ3q4yIAV1FS-39" value="Yes" style="text;html=1;align=center;verticalAlign=middle;whiteSpace=wrap;rounded=0;" vertex="1" parent="1">
          <mxGeometry x="1130" y="720" width="60" height="30" as="geometry" />
        </mxCell>
        <mxCell id="Kv_2CGKWCQ3q4yIAV1FS-40" value="No" style="text;html=1;align=center;verticalAlign=middle;whiteSpace=wrap;rounded=0;" vertex="1" parent="1">
          <mxGeometry x="1290" y="840" width="60" height="30" as="geometry" />
        </mxCell>
        <mxCell id="Kv_2CGKWCQ3q4yIAV1FS-41" value="" style="endArrow=classic;html=1;rounded=0;exitX=0.5;exitY=1;exitDx=0;exitDy=0;entryX=0;entryY=0;entryDx=0;entryDy=0;" edge="1" parent="1" source="Kv_2CGKWCQ3q4yIAV1FS-17" target="Kv_2CGKWCQ3q4yIAV1FS-4">
          <mxGeometry width="50" height="50" relative="1" as="geometry">
            <mxPoint x="430" y="790" as="sourcePoint" />
            <mxPoint x="480" y="740" as="targetPoint" />
            <Array as="points">
              <mxPoint x="410" y="1000" />
              <mxPoint x="20" y="1000" />
              <mxPoint x="10" y="340" />
            </Array>
          </mxGeometry>
        </mxCell>
        <mxCell id="Kv_2CGKWCQ3q4yIAV1FS-43" value="" style="endArrow=classic;html=1;rounded=0;exitX=0.5;exitY=1;exitDx=0;exitDy=0;entryX=0;entryY=0.75;entryDx=0;entryDy=0;" edge="1" parent="1" source="Kv_2CGKWCQ3q4yIAV1FS-8" target="Kv_2CGKWCQ3q4yIAV1FS-4">
          <mxGeometry width="50" height="50" relative="1" as="geometry">
            <mxPoint x="260" y="860" as="sourcePoint" />
            <mxPoint x="310" y="810" as="targetPoint" />
            <Array as="points">
              <mxPoint x="160" y="960" />
              <mxPoint x="40" y="960" />
              <mxPoint x="40" y="396" />
            </Array>
          </mxGeometry>
        </mxCell>
      </root>
    </mxGraphModel>
  </diagram>
</mxfile>
